<svg width="61" height="60" viewBox="0 0 61 60" fill="none" xmlns="http://www.w3.org/2000/svg">
<path d="M0.5 8C0.5 3.58172 4.08172 0 8.5 0H52.5C56.9183 0 60.5 3.58172 60.5 8V52C60.5 56.4183 56.9183 60 52.5 60H8.5C4.08172 60 0.5 56.4183 0.5 52V8Z" fill="#5F59FF"/>
<path d="M43.8334 24.6667V21C43.8334 19.3431 42.4903 18 40.8334 18H20.1667C18.5099 18 17.1667 19.3431 17.1667 21V26V28.5C17.1667 29.3284 17.8383 30 18.6667 30H22.3334C23.1618 30 23.8334 29.3284 23.8334 28.5V26" stroke="#EFEEFF" stroke-width="2"/>
<path d="M23.8333 26V28.5C23.8333 29.3284 24.5048 30 25.3333 30H28.9999C29.8283 30 30.4999 29.3284 30.4999 28.5V26" stroke="#EFEEFF" stroke-width="2"/>
<path d="M26.4999 42H22.8333C21.1764 42 19.8333 40.6569 19.8333 39V30" stroke="#EFEEFF" stroke-width="2"/>
<path d="M38.7726 27.0607L28.8939 36.9393C28.3081 37.5251 28.3081 38.4749 28.8939 39.0607L32.1059 42.2727C32.6917 42.8585 33.6415 42.8585 34.2272 42.2727L44.1059 32.394C44.6917 31.8082 44.6917 30.8585 44.1059 30.2727L40.8939 27.0607C40.3081 26.4749 39.3584 26.4749 38.7726 27.0607Z" stroke="#EFEEFF" stroke-width="2"/>
<path d="M39.8334 38L33.1667 31.3333" stroke="#EFEEFF" stroke-width="2"/>
</svg>
