<svg width="60" height="60" viewBox="0 0 60 60" fill="none" xmlns="http://www.w3.org/2000/svg">
<path d="M8 0.5H52C56.1421 0.5 59.5 3.85786 59.5 8V52C59.5 56.1421 56.1421 59.5 52 59.5H8C3.85786 59.5 0.5 56.1421 0.5 52V8C0.5 3.85786 3.85786 0.5 8 0.5Z" fill="#F9F9F9"/>
<path d="M8 0.5H52C56.1421 0.5 59.5 3.85786 59.5 8V52C59.5 56.1421 56.1421 59.5 52 59.5H8C3.85786 59.5 0.5 56.1421 0.5 52V8C0.5 3.85786 3.85786 0.5 8 0.5Z" stroke="#E0E0E1"/>
<path d="M23.3333 23.3334H36.6666" stroke="#161616" stroke-width="2"/>
<path d="M24.6667 18H35.3334V28.3333C35.3334 29.9902 33.9903 31.3333 32.3334 31.3333H27.6668C26.0099 31.3333 24.6667 29.9902 24.6667 28.3333V18Z" stroke="#161616" stroke-width="2"/>
<path d="M40.6666 42V31.6666C40.6666 30.0098 39.3234 28.6666 37.6666 28.6666H35.3333M19.3333 42V31.6666C19.3333 30.0098 20.6764 28.6666 22.3333 28.6666H24.6666" stroke="#161616" stroke-width="2"/>
<path d="M30 34L30 42" stroke="#161616" stroke-width="2"/>
<path d="M34 38L26 38" stroke="#161616" stroke-width="2"/>
</svg>
