<svg width="61" height="60" viewBox="0 0 61 60" fill="none" xmlns="http://www.w3.org/2000/svg">
<path d="M0.5 8C0.5 3.58172 4.08172 0 8.5 0H52.5C56.9183 0 60.5 3.58172 60.5 8V52C60.5 56.4183 56.9183 60 52.5 60H8.5C4.08172 60 0.5 56.4183 0.5 52V8Z" fill="#5F59FF"/>
<path d="M30.4999 40.6666L41.7119 29.4546C42.8835 28.2831 42.8835 26.3836 41.7119 25.212L37.9546 21.4546C36.783 20.2831 34.8835 20.2831 33.7119 21.4546L30.4999 24.6666" stroke="#EFEEFF" stroke-width="2" stroke-linecap="square"/>
<path d="M30.5001 40.6666L19.2881 29.4546C18.1165 28.2831 18.1165 26.3836 19.2881 25.212L23.0454 21.4546C24.217 20.2831 26.1165 20.2831 27.2881 21.4546L30.5001 24.6666" stroke="#EFEEFF" stroke-width="2" stroke-linecap="square"/>
</svg>
