<svg width="61" height="60" viewBox="0 0 61 60" fill="none" xmlns="http://www.w3.org/2000/svg">
<path d="M0.5 8C0.5 3.58172 4.08172 0 8.5 0H52.5C56.9183 0 60.5 3.58172 60.5 8V52C60.5 56.4183 56.9183 60 52.5 60H8.5C4.08172 60 0.5 56.4183 0.5 52V8Z" fill="#5F59FF"/>
<rect x="18.5" y="24.6667" width="24" height="16" rx="3" stroke="#EFEEFF" stroke-width="2"/>
<path d="M23.8333 23.3333V20.8333C23.8333 20.0049 24.5048 19.3333 25.3333 19.3333H35.6666C36.495 19.3333 37.1666 20.0049 37.1666 20.8333V23.3333" stroke="#EFEEFF" stroke-width="2"/>
<path d="M30.5 28.6667L30.5 36.6667" stroke="#EFEEFF" stroke-width="2"/>
<path d="M34.5 32.6667H26.5" stroke="#EFEEFF" stroke-width="2"/>
</svg>
