<svg width="60" height="60" viewBox="0 0 60 60" fill="none" xmlns="http://www.w3.org/2000/svg">
<path d="M8 0.5H52C56.1421 0.5 59.5 3.85786 59.5 8V52C59.5 56.1421 56.1421 59.5 52 59.5H8C3.85786 59.5 0.5 56.1421 0.5 52V8C0.5 3.85786 3.85786 0.5 8 0.5Z" fill="#F9F9F9"/>
<path d="M8 0.5H52C56.1421 0.5 59.5 3.85786 59.5 8V52C59.5 56.1421 56.1421 59.5 52 59.5H8C3.85786 59.5 0.5 56.1421 0.5 52V8C0.5 3.85786 3.85786 0.5 8 0.5Z" stroke="#E0E0E1"/>
<path d="M39 20.6666H21C19.3431 20.6666 18 22.0098 18 23.6666V28.6666H42V23.6666C42 22.0098 40.6569 20.6666 39 20.6666Z" stroke="#161616" stroke-width="2"/>
<rect x="36.6667" y="23.3334" width="2.66667" height="2.66667" rx="0.5" fill="#161616"/>
<rect x="32.6667" y="23.3334" width="2.66667" height="2.66667" rx="0.5" fill="#161616"/>
<path d="M39 32.6666H21C19.3431 32.6666 18 34.0098 18 35.6666V40.6666H42V35.6666C42 34.0098 40.6569 32.6666 39 32.6666Z" stroke="#161616" stroke-width="2"/>
<rect x="36.6667" y="35.3334" width="2.66667" height="2.66667" rx="0.5" fill="#161616"/>
<rect x="32.6667" y="35.3334" width="2.66667" height="2.66667" rx="0.5" fill="#161616"/>
</svg>
