<svg width="60" height="60" viewBox="0 0 60 60" fill="none" xmlns="http://www.w3.org/2000/svg">
<path d="M8 0.5H52C56.1421 0.5 59.5 3.85786 59.5 8V52C59.5 56.1421 56.1421 59.5 52 59.5H8C3.85786 59.5 0.5 56.1421 0.5 52V8C0.5 3.85786 3.85786 0.5 8 0.5Z" fill="#F9F9F9"/>
<path d="M8 0.5H52C56.1421 0.5 59.5 3.85786 59.5 8V52C59.5 56.1421 56.1421 59.5 52 59.5H8C3.85786 59.5 0.5 56.1421 0.5 52V8C0.5 3.85786 3.85786 0.5 8 0.5Z" stroke="#E0E0E1"/>
<path d="M20.6667 22C20.6667 23.4727 21.8607 24.6666 23.3334 24.6666H36.6668C38.1395 24.6666 39.3334 23.4727 39.3334 22V22C39.3334 20.5272 38.1395 19.3333 36.6668 19.3333H23.3334C21.8607 19.3333 20.6667 20.5272 20.6667 22V22Z" stroke="#161616" stroke-width="2"/>
<path d="M23.3333 24.6666H36.6666V39C36.6666 40.6568 35.3234 42 33.6666 42H26.3332C24.6764 42 23.3333 40.6568 23.3333 39V24.6666Z" stroke="#161616" stroke-width="2"/>
<path d="M24.6667 19.3334L24.6667 24.6667" stroke="#161616" stroke-width="2"/>
<path d="M35.3333 19.3334L35.3333 24.6667" stroke="#161616" stroke-width="2"/>
<path d="M30 19.3334L30 24.6667" stroke="#161616" stroke-width="2"/>
<path d="M30 28.6666L30 36.6666" stroke="#161616" stroke-width="2"/>
<path d="M34 32.6666H26" stroke="#161616" stroke-width="2"/>
</svg>
