<svg width="61" height="60" viewBox="0 0 61 60" fill="none" xmlns="http://www.w3.org/2000/svg">
<path d="M0.5 8C0.5 3.58172 4.08172 0 8.5 0H52.5C56.9183 0 60.5 3.58172 60.5 8V52C60.5 56.4183 56.9183 60 52.5 60H8.5C4.08172 60 0.5 56.4183 0.5 52V8Z" fill="#5F59FF"/>
<path d="M22.5 34H27.8333" stroke="#EFEEFF" stroke-width="2"/>
<path d="M31.8333 30H37.1666" stroke="#EFEEFF" stroke-width="2"/>
<path d="M22.5 20.6667V40.5C22.5 41.3284 23.1716 42 24 42H26.3333C27.1618 42 27.8333 41.3284 27.8333 40.5V20.6667" stroke="#EFEEFF" stroke-width="2"/>
<path d="M31.8333 20.6667V40.5C31.8333 41.3284 32.5048 42 33.3333 42H35.6666C36.495 42 37.1666 41.3284 37.1666 40.5V20.6667" stroke="#EFEEFF" stroke-width="2"/>
<path d="M19.1667 19.3333H41.1667" stroke="#EFEEFF" stroke-width="2"/>
<path d="M19.1667 24.6667H41.1667" stroke="#EFEEFF" stroke-width="2"/>
</svg>
