<svg width="14" height="14" viewBox="0 0 14 14" fill="none" xmlns="http://www.w3.org/2000/svg">
<path d="M6.66339 0.809271C6.8011 0.530241 7.19899 0.530241 7.3367 0.809271L9.11937 4.42135C9.17406 4.53216 9.27976 4.60896 9.40204 4.62673L13.3882 5.20595C13.6961 5.25069 13.8191 5.62911 13.5963 5.8463L10.7119 8.65792C10.6234 8.74417 10.583 8.86843 10.6039 8.99022L11.2848 12.9603C11.3374 13.267 11.0155 13.5008 10.7401 13.356L7.17475 11.4816C7.06538 11.4241 6.93472 11.4241 6.82535 11.4816L3.26001 13.356C2.98459 13.5008 2.66269 13.267 2.71529 12.9603L3.39621 8.99022C3.4171 8.86843 3.37672 8.74417 3.28824 8.65792L0.403822 5.8463C0.181003 5.62911 0.303958 5.25069 0.611886 5.20595L4.59806 4.62673C4.72033 4.60896 4.82604 4.53216 4.88073 4.42135L6.66339 0.809271Z" fill="#FFD60A"/>
</svg>
